#!OML:ASF F:\VICON\USERDATA\INSTALL\rory3\rory3.ASF
:FULLY-SPECIFIED
:DEGREES
92
root -0.2317905187537248 17.71492009485441 44.39610275448599 -1.8450918147869868 -3.119148351719344 -6.206882143069556
lfemur -31.192543856294662 -5.5286386662450315 -7.076842844344991
ltibia 31.002909332145453
lfoot -4.419347038385258 2.8015321560928097
ltoes -17.797548477104897
rfemur -8.753391380099487 2.5612788320302644 33.86020448291474
rtibia 40.23209297430882
rfoot -11.548937983602379 0.5812849079873761
rtoes 16.430403878055127
lowerback 1.0 0.8558242939177341 4.466468397393276
upperback 0.5713883294977667 3.6120679091741903 1.9343748563507916
thorax -5.107200355100715 1.4553046367746936 -1.4505502232899443
lowerneck -15.48074112045599 -2.577536348744748 -2.1695416516553645
upperneck 19.969564586059228 -3.697610858280106 0.6426527070647393
head 8.91389588325964 -1.7908924708687592 -0.06437887022001047
lclavicle 3.1089620086789734e-14 4.758051360826773e-14
lhumerus -34.30392474732547 5.126510509612788 82.2446719051765
lradius 17.334710326889905
lwrist 3.3644472540674237
lhand -28.687023666136167 16.089559425991844
lfingers nan
lthumb -1.3083504916952615 47.01395873529289
rclavicle 3.0085049746171845e-14 4.814983818156026e-14
rhumerus -23.314651192552386 -11.598136296682991 -81.22237870501803
rradius 26.888245402591693
rwrist 1.4983207158745158
rhand -19.045573081040835 1.0
rfingers nan
rthumb 7.085045706535493 -6.1246416654417235
93
root -0.2009230678756444 17.67984701994994 44.2787279447489 -1.4049806417699666 -3.557109566600083 -6.234857022367386
lfemur -28.33523233615469 -9.33074753779048 -6.119241010176527
ltibia 18.149359130598555
lfoot -4.411254881537409 2.4365859123737907
ltoes -20.967889984124735
rfemur -6.673584658980267 1.996255086236927 32.789930831603144
rtibia 38.65280703983852
rfoot -11.82196215652801 1.3053159726037862
rtoes 14.412420361379777
lowerback 1.0 1.0974224301650486 4.436652220672203
upperback 0.3970098682383564 3.838492579278824 1.5893128301157289
thorax -4.87377511337552 1.62703543714252 -1.7687537288853703
lowerneck -15.587565151691106 -2.702003159858586 -2.2274910990756323
upperneck 20.275993458832524 -3.94002034158704 0.8062674060920315
head 9.058068963608775 -1.8670175402968416 -0.036423691054170565
lclavicle -2.276067721925222e-14 6.05253370279633e-15
lhumerus -35.28652120439388 6.494013662784708 81.76677777003913
lradius 16.041125133242865
lwrist 2.2817164808168666
lhand -27.6299109283356 16.995908739274533
lfingers nan
lthumb -0.27809577368170435 47.893959341274346
rclavicle -2.3151671342535648e-14 7.342787328567946e-15
rhumerus -21.9526120370884 -11.241636274256388 -81.32301771390215
rradius 28.049059875099555
rwrist 1.300946717149042
rhand -19.393850481492457 1.0
rfingers nan
rthumb 6.740218178141793 -5.853699292571206
94
root -0.17249969084745576 17.640131182730297 44.21244608626611 -1.129154733761805 -4.118420498860761 -6.681442801201101
lfemur -25.592747454866547 -11.500818097116142 -5.297465944843843
ltibia 8.339544075684827
lfoot -5.566392049690008 3.111120840660079
ltoes -16.568643791851326
rfemur -4.778424363808217 1.8188266071472747 32.447263103130936
rtibia 37.59548779324233
rfoot -11.862383847311474 2.3434250342130234
rtoes 13.01811052183206
lowerback 1.0 1.3202042003228422 5.088372822084613
upperback 0.46816925237591583 4.086542444076358 1.5503988825562032
thorax -4.358526415099459 1.784618091401428 -2.0997826670974797
lowerneck -15.543256201040569 -2.5937390061431476 -2.087622782811406
upperneck 19.95210298638793 -3.8292894975630194 0.8512204735677038
head 8.93917966499943 -1.8124960179288327 -0.03928712682659534
lclavicle -1.2116563859576804e-14 7.923226318557963e-15
lhumerus -36.15314924213172 7.191783568020077 81.67361627363381
lradius 14.748222637692518
lwrist 1.7901058055080925
lhand -28.70089342976806 21.93064581054432
lfingers nan
lthumb -1.3408270049656135 52.7839243925056
rclavicle -1.238396959995232e-14 9.322566224268475e-15
rhumerus -20.288990638192928 -11.17960554269977 -81.56081242391294
rradius 28.356025466110683
rwrist 1.127564421982603
rhand -19.087031357838352 1.0
rfingers nan
rthumb 7.02972393706667 -5.963736454001848
95
root -0.15956350133349329 17.573141512255987 44.08285175680004 -1.254969720760539 -4.334986293983048 -6.766695627297791
lfemur -25.036364736922483 -8.852586267628967 -6.9042044946932535
ltibia 6.235193293563846
lfoot -6.0187426760188 3.0733433890719537
ltoes -18.260602259071785
rfemur -3.446845876135699 2.2516787765345474 32.39107249616022
rtibia 39.03995002244844
rfoot -11.636748736370071 1.8683659517647992
rtoes 6.935358380385898
lowerback 1.0 1.3270582455346747 5.217618845657348
upperback 0.34297972696452755 4.05800202679338 1.6334944557226383
thorax -4.947959542495451 1.7840436773225312 -2.0642206726699195
lowerneck -15.677381496746976 -2.614044788913619 -2.272061576169977
upperneck 20.01281377918222 -3.807593455516175 0.9249549253281758
head 9.004474176875624 -1.810685180655652 0.001650485400612689
lclavicle -4.1800892668182743e-14 1.2191498166961994e-14
lhumerus -37.09102963885167 8.167046037248504 81.40692796943695
lradius 13.20373744667206
lwrist 0.21965249659141906
lhand -26.470972249527183 21.829694987446786
lfingers nan
lthumb 0.87307184084938 52.809162507773735
rclavicle -4.170124949927257e-14 1.317389412094319e-14
rhumerus -19.54644550087401 -11.284037365260582 -81.78173018678109
rradius 29.339344794596208
rwrist 0.84233941878857
rhand -19.683723299533483 1.0
rfingers nan
rthumb 6.439882647722768 -6.516389204663198
96
root -0.11822685321871029 17.537309093140536 44.11660878822328 -1.730676262239227 -4.171256063438437 -6.24413393205681
lfemur -25.638421681477645 -6.9874722284023205 -9.098117261217142
ltibia 10.680868267661175
lfoot -5.16274760740426 0.995073121763419
ltoes -17.038517025131604
rfemur -2.154927205516163 2.118739807532706 31.37330038566205
rtibia 41.77262728143156
rfoot -10.630547743474738 1.8966395786285144
rtoes 2.9404490060933877
lowerback 1.0 1.2522608548054506 4.578950126257872
upperback 0.6224818400085983 3.74727017186904 1.531543375418777
thorax -4.477914697195537 1.72311635344101 -1.70900142267368
lowerneck -15.728911843809314 -2.641165814561824 -2.2254612458368794
upperneck 20.05063670817438 -3.786007194992298 0.7765033622813551
head 9.016485643089743 -1.834055995898749 -0.05872219118297174
lclavicle 3.489484199772994e-14 4.79380650859003e-15
lhumerus -37.53015752506414 9.550242202372722 80.80264269660907
lradius 11.37319579858941
lwrist -2.663123115025526
lhand -23.773557005851295 26.09065218839507
lfingers nan
lthumb 3.454525447350402 57.05836586644141
rclavicle 3.410712096134084e-14 5.327182776110747e-15
rhumerus -19.22061968673738 -12.17633766740261 -81.95046697380367
rradius 29.882107481033824
rwrist 1.1155595623696275
rhand -19.171953319003883 1.0
rfingers nan
rthumb 6.921381167601204 -7.550587270303142
